<?xml version="1.0" encoding="utf-8"?>
<!-- Generator: Adobe Illustrator 25.0.1, SVG Export Plug-In . SVG Version: 6.00 Build 0)  -->
<svg version="1.1" id="Layer_1" xmlns="http://www.w3.org/2000/svg" xmlns:xlink="http://www.w3.org/1999/xlink" x="0px" y="0px"
	 viewBox="0 0 595.3 841.9" style="enable-background:new 0 0 595.3 841.9;" xml:space="preserve">
<style type="text/css">
	.st0{fill:#276432;}
	.st1{fill:#AEB535;}
	.st2{fill:#004025;}
	.st3{fill:#AEB435;}
	.st4{fill:#121F34;}
	.st5{fill:#111F33;}
	.st6{fill:#D0982A;}
	.st7{fill:#FFFFFF;}
</style>
<g>
	<g>
		<g>
			<g>
				<path class="st2" d="M324,474.5v-34.8c0-8.5,4.9-12,11.5-12h0.4c6.6,0,11.5,3.4,11.5,12.4v7.6h-6.6v-8.1c0-4.4-2.4-6.1-5.1-6.1
					h-0.1c-2.6,0-5,1.7-5,6.1v34.8c0,4.5,2.4,6.1,4.9,6.1h0.2c2.7,0,5.1-1.6,5.1-6.1v-10.1h6.6v10.1c0,9.1-5,12.4-11.5,12.4h-0.4
					C328.9,487,324,483.6,324,474.5z"/>
			</g>
			<g>
				<path class="st2" d="M353.4,428.5h6.5v51.1h10.9v6.6h-17.4V428.5z"/>
			</g>
			<g>
				<path class="st2" d="M375.7,428.5h18.9v6.4h-12.4v17.9h10.5v6.1h-10.5v20.7h12.4v6.5h-19L375.7,428.5z"/>
			</g>
			<g>
				<path class="st2" d="M414.9,474.4h-9.1l-1.2,11.8H398l7-57.7h10.3l7.4,57.7h-6.5L414.9,474.4z M414.2,468.1l-3.8-33.2H410
					l-3.5,33.2H414.2z"/>
			</g>
			<g>
				<path class="st2" d="M450.4,428.5v57.7h-6.6l-9.8-34.6v34.6h-6.6v-57.7h6.6l9.8,37.8v-37.8H450.4z"/>
			</g>
		</g>
		<g>
			<g>
				<path class="st2" d="M167.6,463.6v11.5c0,7.5-4.7,10.2-11.2,10.2H145l0.1-57.7h11.3c6.6,0,10.8,3.3,10.8,10.7v8.6
					c0,3.4-1.3,6.6-3.7,8.2C166.4,456.7,167.6,459.9,167.6,463.6z M151.5,452.2h4.5c2.5,0,4.8-1.6,4.8-6v-6.9c0-4.3-2.4-5.7-4.8-5.7
					h-4.6V452.2z M160.8,464.8c0-4.3-2.1-6-4.5-6h-4.8v20.3h4.5c2.5,0,4.8-1.2,4.8-5.7V464.8z"/>
			</g>
			<g>
				<path class="st2" d="M173,473.7v-34.9c0-8.9,5-11.9,11.6-11.9h0.4c6.6,0,11.6,3,11.6,12v34.8c0,9.1-5,12.4-11.6,12.4h-0.4
					C178,486.1,173,482.8,173,473.7z M184.9,479.8c2.3,0,4.7-1.1,4.7-5.6v-35.7c0-4.5-2.4-5.7-4.7-5.7h-0.1c-2.3,0-4.7,1.2-4.7,5.7
					v35.7c0,4.5,2.4,5.6,4.6,5.6H184.9z"/>
			</g>
			<g>
				<path class="st2" d="M249.9,427.7h6.5v23l0.4,0.3l8.4-23.3h7.1L262.1,455l10.2,30.3h-6.5l-7.7-22l-1.9,5.4l0.1,16.6h-6.5V427.7z
					"/>
			</g>
			<g>
				<g>
					<path class="st2" d="M245,455.1c0,3.1,0,6.2,0,9.3c0.1,9.4-6.6,18.4-16.4,20.4c-6.9,1.4-13.4,0.5-19-4.1
						c-4.7-3.8-7.4-8.8-7.7-14.9c-0.3-6.7-0.2-13.4-0.1-20.1c0.2-9.2,5.9-16.9,14.5-19.7c0.1,0,0.2-0.1,0.4-0.1
						c0.8-0.2,0.9-0.2,0.7,0.6c-0.1,0.6-0.2,1.3-0.2,1.9c0,4.9,0,9.8,0,14.7c0,2.3,0.8,4.3,2.4,5.9c0.6,0.6,1.2,1,2,1.3
						c0.7,0.2,0.8,0.6,0.8,1.2c0,3.3,0,6.6,0,9.9c0,0.3,0,0.6,0,0.8c0.1,0.6,0.5,0.9,1,0.9c0.6,0,1-0.3,1.1-0.9c0.1-0.3,0-0.5,0-0.8
						c0-3.3,0-6.6,0-10c0-0.4-0.1-0.8,0.4-1c3.4-1.3,4.7-4.1,4.8-7.5c0.1-3.5,0-7,0-10.5c0-1.4,0-2.9,0-4.3c0-0.5-0.1-1.1-0.2-1.6
						c-0.2-0.9-0.2-0.9,0.7-0.6c2.5,0.7,4.7,1.9,6.8,3.5c5.2,4.3,8,9.7,8,16.5C245,448.9,245,452,245,455.1z"/>
				</g>
				<g>
					<path class="st2" d="M223.4,425.8c-1.5,0-1.6,0-1.8-1.5c-0.3-1.9-1.4-3.1-3.3-3.5c-1.3-0.3-2.6-0.4-3.9-0.4
						c-2.4-0.1-4.9,0.1-7.3-0.3c-2.4-0.4-4.5-1.3-5.8-3.5c-0.8-1.3-1.1-2.8-1.1-4.3c0-0.5,0.2-0.6,0.7-0.6c0.7,0,1.3,0,2,0
						c0.4,0,0.7,0.1,0.7,0.6c0,0.3,0.1,0.7,0.1,1c0.2,1.5,1,2.5,2.5,3c1.1,0.4,2.2,0.5,3.4,0.5c2.7,0.1,5.4-0.1,8,0.3
						c2.2,0.3,4.2,0.9,5.7,2.7c1.3,1.5,1.7,3.3,1.8,5.2c0,0.5-0.2,0.7-0.7,0.7C224.1,425.8,223.8,425.8,223.4,425.8z"/>
				</g>
				<g>
					<path class="st2" d="M220.1,435.7c0.1-1.9,0.3-3.7,1.5-5.3c1.1-1.5,2.5-1.6,3.7-0.1c1,1.3,1.3,2.9,1.5,4.5
						c0.2,1.9-0.1,3.8-0.9,5.5c-0.1,0.3-0.3,0.5-0.4,0.8c-1.1,1.7-2.8,1.7-3.9,0C220.4,439.4,220.2,437.5,220.1,435.7z"/>
				</g>
			</g>
		</g>
		<g>
			<path class="st2" d="M138.2,489.2c11.6,0,113.1-0.1,124.7-0.1c3.7,0,7.3-0.3,10.9-1.3c1-0.3,1.9-0.7,2.8-1.1
				c1.5-0.6,1.8-1.5,0.4-2.6c-0.4-0.3-0.8-0.8-1.1-1.2c-3.2-4.1-3.2-4.9,1.1-7.8c9.2-6.2,16.5-14.1,22.1-23.5c1-1.7,2-3.3,2.3-5.6
				c0.4-4,2.3-7.6,6.6-9.2c1.2-0.5,1.3-1.6,1.6-2.6c6.5-19.3,13-38.5,19.4-57.8c0.4-1.2,0.8-2.3,1.2-3.5c1-2.8,2.7-3.8,5.2-2.9
				c2.5,0.8,3.3,2.6,2.4,5.5c-3.6,10.6-7.2,21.1-10.7,31.7c-3.3,9.8-6.6,19.7-10,29.5c-0.4,1.2-0.4,2.1,0.4,3.2
				c2.1,2.7,2,5.7,1.1,8.9c-2.5,9.1-3.4,18.3-2,27.6c0.6,4.2,2.8,7.9,4.9,11.5c0.4,0.7,1,1.1,1.9,1.1c0.9,0,1.8,0,2.8,0
				c85.4,0,40.9,0,126.3,0c1.1,0,2.1,0,3.2,0.1c0.8,0,1.3,0.4,1.3,1.3c0,1-0.5,1.4-1.4,1.5c-0.6,0-1.2,0.1-1.8,0.1
				c-86.7,0-43.3,0-130,0c-2.3,0-3.5-0.8-4.8-2.7c-5.8-8.8-6.6-18.4-5.4-28.4c0.3-2.8,0.6-5.6,0.8-8.4c0.5-1.5,0.9-3.1,1.5-4.6
				c1.1-2.6,0.7-5-1.2-7c-1.1-1.2-1.2-2.3-0.7-3.7c5.6-16.5,11.2-33,16.7-49.5c1.5-4.3,2.9-8.7,4.4-13c0.3-0.9,0.4-1.7-0.7-2.1
				c-1.2-0.4-1.4,0.5-1.7,1.3c-0.4,1.2-0.9,2.4-1.3,3.7c-6.6,19.5-13.1,39.1-19.7,58.6c-0.5,1.6-1.1,2.9-3,3.3
				c-2.6,0.6-3.6,2.8-4.4,5.2c-0.3,1.1,0.2,1.5,1.1,1.8c2,0.6,4.1,1.3,6.1,1.9c2,0.7,3.1,1.9,2.8,4.1c-1.3,1.4-2.7,1.8-4.6,1.1
				c-1.9-0.7-3.9-1.2-5.9-1.9c-1.1-0.4-1.8-0.1-2.4,0.9c-6,10.1-13.8,18.6-23.7,25c-1.3,0.8-1.5,1.6-0.5,2.7
				c0.7,0.8,1.4,1.6,2.1,2.4c2,2,1.9,3.8-0.4,5.5c-3.3,2.4-7.2,2.9-11.1,3.2c-13.3,0.9-116.6,0.3-129.9,0.4
				C138.2,491,138.2,490.1,138.2,489.2z"/>
		</g>
		<g>
			<path class="st2" d="M306.5,488.5c-0.7,1.6-1.1,2.9-0.8,4.4c0.5,2.1-0.1,2.9-2.3,2.3c-4.2-1.1-8.9-1.5-10.8-6.8
				c-1.8,3.6-2,3.7-5.2,1.7c-1.1-0.7-2.2-1.4-3.2-2.2c-2.3-2.1-2.5-5.9-0.6-8.3c0.5-0.6,1-1,1.8-0.6c0.7,0.4,0.9,1,0.6,1.7
				c-0.2,0.5-0.4,1-0.6,1.5c-0.7,2.5,0.7,4.8,3.2,5.5c0.9,0.2,1.1-0.3,1.4-0.8c0.7-1.1,1.4-2.2,2.1-3.3c0.3-0.5,0.8-1,1.5-0.9
				c0.8,0.1,1.1,0.7,1.2,1.5c0.1,0.5,0.1,1.1,0.1,1.6c0.4,3.7,3.3,6.2,7.1,6.2c0.9,0,0.9-0.6,1-1.2c0.3-3.1,2.1-5.5,3.4-8.2
				c0.3-0.7,0.8-1.1,1.6-0.9c0.8,0.2,1,0.9,1.1,1.6c0.2,2.1,0,4.3,0.6,6.4c0.9,3.2,2.6,4,5.7,2.6c0.1,0,0.1-0.1,0.2-0.1
				c1.2-0.3,2.6-2.1,3.5-0.1c0.7,1.7-1.3,2.1-2.5,2.7c-4.6,2.2-7.9,0.8-9.5-4C306.9,490,306.7,489.3,306.5,488.5z"/>
		</g>
		<g>
			<g>
				<path class="st2" d="M262,359.8c1.4,0.8,2.5,1.9,2.9,3.5c0.3,0.9,0.2,1.9,0.2,2.9c-0.1,1.2-0.1,2.4-0.5,3.5
					c-0.1,0.3-0.3,0.6-0.5,0.9c-0.2,0.3-0.4,0.3-0.6,0c-0.3-0.5-0.5-1-0.7-1.5c-0.6-1.8-1.1-3.5-1.5-5.4c-0.1-0.7-0.4-1.3-1.2-1.5
					c-0.7-0.1-1.3,0-1.8,0.5c-0.4,0.4-0.4,0.9-0.4,1.4c0.2,1.5,0.7,3,1.1,4.5c0.4,1.3,0.9,2.5,1.5,3.8c0.1,0.3,0.2,0.5-0.3,0.7
					c0.8,0.2,1,0.9,1.3,1.4c1.9,3.8,4.3,7.2,7.1,10.2c2.2,2.4,4.7,4.5,7.4,6.3c2.3,1.6,4.8,3,7.3,4.1c3,1.4,6.1,2.4,9.2,3.2
					c2.3,0.6,4.7,1.1,7,1.4c4,0.6,8,0.9,12,0.5c2.1-0.2,4.2-0.6,6.3-1.3c0.3-0.1,0.5-0.2,0.8-0.2c0.5-0.1,0.6,0,0.5,0.5
					c-0.3,1-0.7,2-1,3c-1.3,4.1-2.7,8.2-4,12.3c-1.3,4.1-2.7,8.1-4,12.1c-0.1,0.3-0.2,0.5-0.6,0.5c-3.2,0.3-6.4,0.5-9.6,0.5
					c-3.3,0-6.6-0.2-9.9-0.5c-3.3-0.3-6.6-0.8-9.8-1.5c-4.9-1-9.7-2.4-14.4-4.3c-2-0.8-4-1.6-6-2.5c-0.5-0.2-0.7-0.6-0.7-1.2
					c0-3.6,0-7.2,0-10.8c0-4.3,0-8.6,0.1-12.8c0-3.9,0.1-7.7,0.1-11.6c0-3,0.1-6,0.1-9c0-0.4-0.2-0.5-0.5-0.6
					c-0.8-0.1-1.5-0.3-2.2-0.7c-1.7-1-2.5-2.5-2.6-4.5c-0.1-1.3,0-2.6,0.2-3.9c0.3-2,1.5-3.2,3.2-4c0.5-0.2,1-0.4,1.6-0.5
					c0.3,0,0.5-0.2,0.5-0.5c0-1.1,0.1-2.2,0.1-3.2c0-0.3-0.2-0.4-0.4-0.5c-0.6-0.3-1.2-0.6-1.8-1.1c-1.1-0.9-1.4-2.4-0.7-3.7
					c0.7-1.3,2.1-1.9,3.5-1.5c1.1,0.3,2.1,0.8,3.2,1.3c2.7,1.2,5.5,2.2,8.3,3.1c2.8,0.9,5.6,1.7,8.4,2.4c6.5,1.6,13.2,2.5,19.8,3.6
					c2.7,0.4,5.3,0.8,8,1.1c3.2,0.4,6.5,0.6,9.7,0.7c3.1,0.1,6.1,0.1,9.2-0.1c1.4-0.1,2.9-0.2,4.3-0.3c1.5-0.1,2.8,1,3,2.5
					c0.2,1.5-0.4,2.8-1.9,3.4c-0.6,0.2-1.2,0.3-1.8,0.4c-0.4,0-0.6,0.2-0.7,0.6c-1.1,3.5-2.3,6.9-3.5,10.4
					c-1.2,3.6-2.4,7.1-3.6,10.7c-0.5,1.4-1,2.9-1.4,4.3c-0.1,0.4-0.3,0.7-0.7,0.9c-1.9,1.2-3.9,1.9-6,2.4c-3.3,0.8-6.6,0.9-9.9,0.7
					c-3-0.2-6-0.8-9-1.4c-4.1-0.8-8-2.1-11.8-3.9c-5.1-2.4-9.6-5.6-13.4-9.7c-2.4-2.6-4.4-5.4-5.9-8.5c-0.5-1-0.5-1,0.3-1.8
					c0.9-0.8,1.3-1.9,1.5-3.1c0.2-1.3,0.3-2.6,0.1-3.9c-0.2-2.6-1.8-4-4.2-4.8C262.3,359.8,262.2,359.7,262,359.8z"/>
			</g>
			<g>
				<path class="st2" d="M296.2,356c-2.4-0.4-4.8-0.7-7.2-1.2c-3.5-0.7-7.1-1.5-10.5-2.5c-2.2-0.6-4.4-1.3-6.6-2.1
					c-1.2-0.5-2.5-0.9-3.5-1.8c-0.1-0.1-0.2-0.2-0.3-0.3c-0.4-0.5-0.4-0.8,0.2-1.1c0.6-0.4,1.3-0.6,2-0.6c2.6-0.3,5.2-0.2,7.9,0
					c3.1,0.1,6.2,0.5,9.3,0.8c2.5,0.2,4.9,0.6,7.4,1.1c2.6,0.5,5.2,0.9,7.8,1.3c4.6,0.8,9.1,1.8,13.5,3.1c2.1,0.6,4.1,1.2,6.1,2
					c0.9,0.4,1.9,0.8,2.7,1.3c0.4,0.3,0.8,0.6,0.8,1.1c-0.1,0.6-0.6,0.7-1.1,0.8c-1.4,0.4-2.8,0.5-4.2,0.5c-2.2,0-4.5-0.1-6.7-0.2
					c-3.2-0.2-6.4-0.5-9.6-1C301.4,356.9,298.8,356.4,296.2,356C296.2,356,296.2,356,296.2,356z"/>
			</g>
		</g>
	</g>
	<g>
		<path class="st2" d="M330.3,408h3.3c1.9,0,3.3,0.7,3.3,3.1v10.6c0,2.6-1.4,3.1-3.3,3.1h-3.3V408z M333.5,423
			c0.7,0,1.4-0.4,1.4-1.6v-10c0-1.3-0.7-1.6-1.4-1.6h-1.4V423H333.5z"/>
		<path class="st2" d="M339.1,408h1.9v16.8h-1.9V408z"/>
		<path class="st2" d="M348.1,413.6v-2.3c0-1.3-0.7-1.8-1.5-1.8h0c-0.7,0-1.4,0.5-1.4,1.8v10.2c0,1.3,0.7,1.8,1.4,1.8h0.1
			c0.9,0,1.6-0.5,1.6-1.8v-3.8h-1.7v-1.9h3.5v5.5c0,2.7-1.4,3.8-3.4,3.8h-0.1c-1.9,0-3.3-1.1-3.3-3.8v-9.9c0-2.6,1.5-3.6,3.3-3.6
			h0.1c1.9,0,3.4,1,3.4,3.6v2.2H348.1z"/>
		<path class="st2" d="M352.2,408h1.9v16.8h-1.9V408z"/>
		<path class="st2" d="M358.4,409.8H356V408h6.8v1.9h-2.5v15h-1.9V409.8z"/>
		<path class="st2" d="M364.7,408h1.9v16.8h-1.9V408z"/>
		<path class="st2" d="M368.5,422.9l5-13h-4.6V408h6.5v1.9l-5,13l5.1,0v1.9h-7V422.9z"/>
		<path class="st2" d="M377.3,408h5.5v1.9h-3.6v5.2h3.1v1.8h-3.1v6h3.6v1.9h-5.5L377.3,408z"/>
		<path class="st2" d="M394.6,408l-2.5,9.9v7h-1.9l0-7l-2.5-9.9h1.9l1.6,7.1l1.5-7.1H394.6z"/>
		<path class="st2" d="M396.3,421.4v-10.2c0-2.6,1.5-3.5,3.4-3.5h0.1c1.9,0,3.4,0.9,3.4,3.5v10.2c0,2.7-1.5,3.6-3.4,3.6h-0.1
			C397.7,425,396.3,424.1,396.3,421.4z M399.7,423.2c0.7,0,1.4-0.3,1.4-1.6v-10.4c0-1.3-0.7-1.7-1.4-1.7h0c-0.7,0-1.4,0.4-1.4,1.7
			v10.4C398.4,422.9,399,423.2,399.7,423.2L399.7,423.2z"/>
		<path class="st2" d="M405.2,421.4V408h2v13.4c0,1.3,0.7,1.8,1.5,1.8h0c0.8,0,1.5-0.5,1.5-1.8V408h1.9v13.4c0,2.7-1.5,3.6-3.4,3.6
			h-0.1C406.7,425,405.2,424.1,405.2,421.4z"/>
		<path class="st2" d="M420.9,424.8H419l-1.7-6.2h-1v6.2h-1.9V408h3.1c1.9,0,3.3,0.7,3.3,2.9v4.5c0,1.7-0.7,2.6-1.8,2.9L420.9,424.8
			z M419,415v-4c0-1.3-0.8-1.4-1.5-1.4h-1.2v7h1.3C418.5,416.7,419,416.3,419,415z"/>
		<path class="st2" d="M427.2,408h1.9v14.9h3.2v1.9h-5.1V408z"/>
		<path class="st2" d="M434.2,408h1.9v16.8h-1.9V408z"/>
		<path class="st2" d="M438.4,408h5.5v1.9h-3.6v5.2h3.1v1.8h-3.1v7.9h-1.9L438.4,408z"/>
		<path class="st2" d="M445.9,408h5.5v1.9h-3.6v5.2h3.1v1.8h-3.1v6h3.6v1.9h-5.5L445.9,408z"/>
	</g>
</g>
</svg>
